HIERARCHY
ROOT Hips
{
  OFFSET -0.826485 102.362 85.5251
  CHANNELS 6 Xposition Yposition Zposition Zrotation Xrotation Yrotation
  JOINT Spine
  {
    OFFSET 0 10.1816 0.1315
    CHANNELS 6 Xposition Yposition Zposition Zrotation Xrotation Yrotation
    JOINT Spine1
    {
      OFFSET 0 10.0835 -1.0008
      CHANNELS 6 Xposition Yposition Zposition Zrotation Xrotation Yrotation
      JOINT Spine2
      {
        OFFSET 0 9.1 -1.3734
        CHANNELS 6 Xposition Yposition Zposition Zrotation Xrotation Yrotation
        JOINT Neck
        {
          OFFSET 0 16.6717 -2.5162
          CHANNELS 6 Xposition Yposition Zposition Zrotation Xrotation Yrotation
          JOINT Head
          {
            OFFSET 0 9.6179 1.685
            CHANNELS 6 Xposition Yposition Zposition Zrotation Xrotation Yrotation
            JOINT HeadTop_End
            {
              OFFSET 0 17.8152 2.585
              CHANNELS 6 Xposition Yposition Zposition Zrotation Xrotation Yrotation
              End Site
              {
                OFFSET 0 0 0
              }
            }
            JOINT LeftEye
            {
              OFFSET 3.0676 6.4095 9.2836
              CHANNELS 6 Xposition Yposition Zposition Zrotation Xrotation Yrotation
              End Site
              {
                OFFSET 0 0 0
              }
            }
            JOINT RightEye
            {
              OFFSET -3.0676 6.4095 9.2835
              CHANNELS 6 Xposition Yposition Zposition Zrotation Xrotation Yrotation
              End Site
              {
                OFFSET 0 0 0
              }
            }
          }
        }
        JOINT LeftShoulder
        {
          OFFSET 4.5704 10.946 -2.628
          CHANNELS 6 Xposition Yposition Zposition Zrotation Xrotation Yrotation
          JOINT LeftArm
          {
            OFFSET 10.5924 -0.5246 -2.2321
            CHANNELS 6 Xposition Yposition Zposition Zrotation Xrotation Yrotation
            JOINT LeftForeArm
            {
              OFFSET 27.8415 -0.0001 0
              CHANNELS 6 Xposition Yposition Zposition Zrotation Xrotation Yrotation
              JOINT LeftHand
              {
                OFFSET 28.3288 0 0
                CHANNELS 6 Xposition Yposition Zposition Zrotation Xrotation Yrotation
                JOINT LeftHandThumb1
                {
                  OFFSET 2.4661 -1.575 2.6824
                  CHANNELS 6 Xposition Yposition Zposition Zrotation Xrotation Yrotation
                  JOINT LeftHandThumb2
                  {
                    OFFSET 3.2298 -1.8647 1.8647
                    CHANNELS 6 Xposition Yposition Zposition Zrotation Xrotation Yrotation
                    JOINT LeftHandThumb3
                    {
                      OFFSET 2.6526 -1.5315 1.5315
                      CHANNELS 6 Xposition Yposition Zposition Zrotation Xrotation Yrotation
                      End Site
                      {
                        OFFSET 1.9546 -1.1285 1.1285
                      }
                    }
                  }
                }
                JOINT LeftHandIndex1
                {
                  OFFSET 9.1093 -0.5171 2.2601
                  CHANNELS 6 Xposition Yposition Zposition Zrotation Xrotation Yrotation
                  JOINT LeftHandIndex2
                  {
                    OFFSET 3.6764 0 0
                    CHANNELS 6 Xposition Yposition Zposition Zrotation Xrotation Yrotation
                    JOINT LeftHandIndex3
                    {
                      OFFSET 2.8831 0 0
                      CHANNELS 6 Xposition Yposition Zposition Zrotation Xrotation Yrotation
                      End Site
                      {
                        OFFSET 2.3927 0 0
                      }
                    }
                  }
                }
                JOINT LeftHandMiddle1
                {
                  OFFSET 9.5334 0 0
                  CHANNELS 6 Xposition Yposition Zposition Zrotation Xrotation Yrotation
                  JOINT LeftHandMiddle2
                  {
                    OFFSET 3.6982 0 0
                    CHANNELS 6 Xposition Yposition Zposition Zrotation Xrotation Yrotation
                    JOINT LeftHandMiddle3
                    {
                      OFFSET 2.9509 0 0
                      CHANNELS 6 Xposition Yposition Zposition Zrotation Xrotation Yrotation
                      End Site
                      {
                        OFFSET 2.8339 0 0
                      }
                    }
                  }
                }
                JOINT LeftHandRing1
                {
                  OFFSET 9.1045 -0.0439 -1.8651
                  CHANNELS 6 Xposition Yposition Zposition Zrotation Xrotation Yrotation
                  JOINT LeftHandRing2
                  {
                    OFFSET 3.154 0 0
                    CHANNELS 6 Xposition Yposition Zposition Zrotation Xrotation Yrotation
                    JOINT LeftHandRing3
                    {
                      OFFSET 2.9377 0 0
                      CHANNELS 6 Xposition Yposition Zposition Zrotation Xrotation Yrotation
                      End Site
                      {
                        OFFSET 2.6475 0 0
                      }
                    }
                  }
                }
                JOINT LeftHandPinky1
                {
                  OFFSET 8.0778 -0.4887 -3.8061
                  CHANNELS 6 Xposition Yposition Zposition Zrotation Xrotation Yrotation
                  JOINT LeftHandPinky2
                  {
                    OFFSET 3.6 0 0
                    CHANNELS 6 Xposition Yposition Zposition Zrotation Xrotation Yrotation
                    JOINT LeftHandPinky3
                    {
                      OFFSET 2.1142 0 0
                      CHANNELS 6 Xposition Yposition Zposition Zrotation Xrotation Yrotation
                      End Site
                      {
                        OFFSET 1.9757 0 0
                      }
                    }
                  }
                }
              }
            }
          }
        }
        JOINT RightShoulder
        {
          OFFSET -4.57 10.9462 -2.628
          CHANNELS 6 Xposition Yposition Zposition Zrotation Xrotation Yrotation
          JOINT RightArm
          {
            OFFSET -10.5928 -0.5248 -2.2321
            CHANNELS 6 Xposition Yposition Zposition Zrotation Xrotation Yrotation
            JOINT RightForeArm
            {
              OFFSET -27.8415 0 0
              CHANNELS 6 Xposition Yposition Zposition Zrotation Xrotation Yrotation
              JOINT RightHand
              {
                OFFSET -28.3288 0 0.0001
                CHANNELS 6 Xposition Yposition Zposition Zrotation Xrotation Yrotation
                JOINT RightHandPinky1
                {
                  OFFSET -8.0767 -0.4885 -3.806
                  CHANNELS 6 Xposition Yposition Zposition Zrotation Xrotation Yrotation
                  JOINT RightHandPinky2
                  {
                    OFFSET -3.6 0 0.0001
                    CHANNELS 6 Xposition Yposition Zposition Zrotation Xrotation Yrotation
                    JOINT RightHandPinky3
                    {
                      OFFSET -2.1142 0 0
                      CHANNELS 6 Xposition Yposition Zposition Zrotation Xrotation Yrotation
                      End Site
                      {
                        OFFSET -1.9757 0 0
                      }
                    }
                  }
                }
                JOINT RightHandRing1
                {
                  OFFSET -9.1036 -0.0439 -1.8651
                  CHANNELS 6 Xposition Yposition Zposition Zrotation Xrotation Yrotation
                  JOINT RightHandRing2
                  {
                    OFFSET -3.154 0 0
                    CHANNELS 6 Xposition Yposition Zposition Zrotation Xrotation Yrotation
                    JOINT RightHandRing3
                    {
                      OFFSET -2.9377 0 0
                      CHANNELS 6 Xposition Yposition Zposition Zrotation Xrotation Yrotation
                      End Site
                      {
                        OFFSET -2.6475 0 0
                      }
                    }
                  }
                }
                JOINT RightHandMiddle1
                {
                  OFFSET -9.5325 0 0
                  CHANNELS 6 Xposition Yposition Zposition Zrotation Xrotation Yrotation
                  JOINT RightHandMiddle2
                  {
                    OFFSET -3.6982 0 0
                    CHANNELS 6 Xposition Yposition Zposition Zrotation Xrotation Yrotation
                    JOINT RightHandMiddle3
                    {
                      OFFSET -2.9509 0 0
                      CHANNELS 6 Xposition Yposition Zposition Zrotation Xrotation Yrotation
                      End Site
                      {
                        OFFSET -2.8339 0 0.0001
                      }
                    }
                  }
                }
                JOINT RightHandIndex1
                {
                  OFFSET -9.1083 -0.5168 2.2601
                  CHANNELS 6 Xposition Yposition Zposition Zrotation Xrotation Yrotation
                  JOINT RightHandIndex2
                  {
                    OFFSET -3.6764 0 0
                    CHANNELS 6 Xposition Yposition Zposition Zrotation Xrotation Yrotation
                    JOINT RightHandIndex3
                    {
                      OFFSET -2.8831 0 0
                      CHANNELS 6 Xposition Yposition Zposition Zrotation Xrotation Yrotation
                      End Site
                      {
                        OFFSET -2.3927 0 0
                      }
                    }
                  }
                }
                JOINT RightHandThumb1
                {
                  OFFSET -2.4648 -1.5727 2.6826
                  CHANNELS 6 Xposition Yposition Zposition Zrotation Xrotation Yrotation
                  JOINT RightHandThumb2
                  {
                    OFFSET -3.2298 -1.8647 1.8647
                    CHANNELS 6 Xposition Yposition Zposition Zrotation Xrotation Yrotation
                    JOINT RightHandThumb3
                    {
                      OFFSET -2.6526 -1.5314 1.5314
                      CHANNELS 6 Xposition Yposition Zposition Zrotation Xrotation Yrotation
                      End Site
                      {
                        OFFSET -1.9546 -1.1285 1.1285
                      }
                    }
                  }
                }
              }
            }
          }
        }
      }
    }
  }
  JOINT LeftUpLeg
  {
    OFFSET 8.2078 -6.7517 -1.5996
    CHANNELS 6 Xposition Yposition Zposition Zrotation Xrotation Yrotation
    JOINT LeftLeg
    {
      OFFSET 0 -44.3705 0.2846
      CHANNELS 6 Xposition Yposition Zposition Zrotation Xrotation Yrotation
      JOINT LeftFoot
      {
        OFFSET 0 -44.4279 -2.9822
        CHANNELS 6 Xposition Yposition Zposition Zrotation Xrotation Yrotation
        JOINT LeftToeBase
        {
          OFFSET 0 -8.7287 10.7106
          CHANNELS 6 Xposition Yposition Zposition Zrotation Xrotation Yrotation
          End Site
          {
            OFFSET 0 -0.0007 9.2781
          }
        }
      }
    }
  }
  JOINT RightUpLeg
  {
    OFFSET -8.2078 -6.7517 -1.5996
    CHANNELS 6 Xposition Yposition Zposition Zrotation Xrotation Yrotation
    JOINT RightLeg
    {
      OFFSET 0 -44.3705 0.2862
      CHANNELS 6 Xposition Yposition Zposition Zrotation Xrotation Yrotation
      JOINT RightFoot
      {
        OFFSET 0 -44.4277 -2.9838
        CHANNELS 6 Xposition Yposition Zposition Zrotation Xrotation Yrotation
        JOINT RightToeBase
        {
          OFFSET 0 -8.7287 10.7106
          CHANNELS 6 Xposition Yposition Zposition Zrotation Xrotation Yrotation
          End Site
          {
            OFFSET 0 -0.0007 9.2781
          }
        }
      }
    }
  }
}
MOTION
Frames:	4
Frame Time:	0.0333333
-0.901131 96.3962 2.18682 -8.71891 -3.12209 -2.32765 0 10.1816 0.1315 6.10133 -1.61533 1.96008 -8.88178e-016 10.0835 -1.0008 0.446598 3.39911 0.357015 4.44089e-016 9.1 -1.3734 0.46418 3.39891 0.339319 8.88178e-016 16.6717 -2.5162 -0.18886 -5.4149 -2.18511 0 9.6179 1.685 2.1813 -0.358465 7.98649 -4.44089e-016 17.8152 2.585 3.31043e-032 2.38542e-015 -7.95139e-016 3.0676 6.4095 9.2836 3.31043e-032 2.38542e-015 -7.95139e-016 -3.0676 6.4095 9.2835 3.31043e-032 2.38542e-015 -7.95139e-016 4.5704 10.946 -2.628 -7.5584 3.3694 -9.28762 10.5924 -0.5246 -2.2321 -69.2148 -45.3486 14.1347 27.8415 -0.0001 0 -0.000191168 -6.14233e-006 -42.4346 28.3288 0 -7.10543e-015 48.6831 -0.487885 -23.527 2.4661 -1.575 2.6824 4.43101 -0.00925877 15.2786 3.2298 -1.8647 1.8647 -6.42543 8.12542 22.7543 2.6526 -1.5315 1.5315 -2.73019 4.21764 6.64462 9.1093 -0.5171 2.2601 11.4955 -0.136062 -2.81135 3.6764 0 7.10543e-015 -30.7971 -0.972251 3.52901 2.8831 0 0 -19.4388 -0.392797 2.29302 9.5334 1.42109e-014 7.10543e-015 -5.81602 0.0189349 7.82091 3.6982 0 0 -12.7545 -0.169997 1.52093 2.9509 1.42109e-014 7.10543e-015 -23.191 -0.556898 2.71359 9.1045 -0.0439 -1.8651 -4.13298 0.0158627 6.21338 3.154 0 -7.10543e-015 -24.7065 -0.630942 2.8803 2.9377 1.42109e-014 7.10543e-015 -6.42491 -0.0432656 0.770822 8.0778 -0.4887 -3.8061 -16.7417 -0.21736 10.3571 3.6 0 7.10543e-015 -9.36476 0.560402 -2.94077 2.1142 0 0 -29.0897 -0.869607 3.35083 -4.57 10.9462 -2.628 9.60701 4.65824 13.8145 -10.5928 -0.5248 -2.2321 64.5706 -23.2058 -2.69016 -27.8415 0 4.44089e-016 -1.48564e-005 -5.6371e-006 17.6488 -28.3288 0 0.0001 -48.5024 6.91031 29.3586 -8.0767 -0.4885 -3.806 24.1327 -0.233055 -21.8705 -3.6 0 0.0001 34.3702 -1.21485 -3.92838 -2.1142 7.10543e-015 0 24.4004 -0.621642 -2.87458 -9.1036 -0.0439 -1.8651 30.4391 -0.746228 -17.8401 -3.154 -1.42109e-014 1.77636e-015 45.3664 -2.07241 -4.95578 -2.9377 7.10543e-015 -1.77636e-015 13.1477 -1.45362 -1.58696 -9.5325 -1.42109e-014 3.55271e-015 52.7153 -2.61618 -16.7639 -3.6982 0 1.77636e-015 36.4646 -1.36343 -4.1374 -2.9509 -1.06581e-014 1.77636e-015 10.0495 -1.44733 -1.21963 -9.1083 -0.5168 2.2601 35.2599 -1.27687 -3.20702 -3.6764 0 7.10543e-015 46.8587 -2.20338 -5.08186 -2.8831 0 3.55271e-015 42.6814 -1.84522 -4.72058 -2.4648 -1.5727 2.6826 -33.2209 -3.25413 -16.3656 -3.2298 -1.8647 1.8647 16.0408 18.9596 -36.1373 -2.6526 -1.5314 1.5314 -2.47719 -3.05961 5.45694 8.2078 -6.7517 -1.5996 5.86352 -49.6699 -1.33538 4.44089e-016 -44.3705 0.2846 178.717 67.4624 -170.61 0 -44.4279 -2.9822 10.2992 22.6494 0.331745 0 -8.7287 10.7106 -3.26741e-006 -0.258163 -1.886e-006 -8.2078 -6.7517 -1.5996 16.7674 -9.78183 -5.43924 0 -44.3705 0.2862 1.64624 34.3599 4.83712 1.77636e-015 -44.4277 -2.9838 -13.6004 -20.3766 -2.13212 -8.88178e-016 -8.7287 10.7106 -2.85252e-006 -3.757 1.54214e-006 
-0.548989 97.2043 5.24756 -6.62479 -3.1027 -4.54942 0 10.1816 0.1315 5.81462 -0.174105 4.59968 0 10.0835 -1.0008 -0.223665 3.41292 0.69766 4.44089e-016 9.1 -1.3734 -0.191751 3.41643 0.684786 0 16.6717 -2.5162 -1.45555 -6.02921 -2.17323 8.88178e-016 9.6179 1.685 2.94643 -2.72517 6.74855 1.11022e-016 17.8152 2.585 -9.93923e-017 0 -0 3.0676 6.4095 9.2836 -9.93923e-017 0 -0 -3.0676 6.4095 9.2835 -9.93923e-017 0 -0 4.5704 10.946 -2.628 -7.71175 3.44375 -9.25215 10.5924 -0.5246 -2.2321 -63.391 -47.7505 19.6194 27.8415 -0.0001 -1.77636e-015 -0.000202244 3.91122e-006 -42.058 28.3288 0 0 49.3689 -2.58932 -25.2713 2.4661 -1.575 2.6824 3.30603 0.054578 15.5363 3.2298 -1.8647 1.8647 -6.39888 8.09993 22.6263 2.6526 -1.5315 1.5315 -2.66973 4.12525 6.36641 9.1093 -0.5171 2.2601 14.3366 -0.213084 -2.89791 3.6764 1.42109e-014 -7.10543e-015 -31.2236 -0.998709 3.57304 2.8831 0 -7.10543e-015 -19.5111 -0.395701 2.30121 9.5334 0 0 -3.28175 0.0536616 8.19137 3.6982 1.42109e-014 7.10543e-015 -12.034 -0.151412 1.4363 2.9509 1.42109e-014 0 -23.1689 -0.555853 2.71114 9.1045 -0.0439 -1.8651 -2.32224 0.0334018 6.42737 3.154 -1.42109e-014 0 -24.23 -0.607184 2.82809 2.9377 0 0 -6.57808 -0.0453524 0.789124 8.0778 -0.4887 -3.8061 -15.86 -0.191392 10.0379 3.6 0 7.10543e-015 -8.85981 0.534178 -3.00638 2.1142 0 0 -29.0838 -0.869272 3.3502 -4.57 10.9462 -2.628 9.10714 4.9442 15.6358 -10.5928 -0.5248 -2.2321 67.4458 -21.0272 1.16879 -27.8415 0 0 2.5603e-005 5.20815e-006 22.1399 -28.3288 7.10543e-015 0.0001 -48.7542 11.8183 32.9926 -8.0767 -0.4885 -3.806 20.0585 -0.099429 -20.0222 -3.6 -1.42109e-014 0.0001 26.3699 -0.723555 -3.08944 -2.1142 -1.42109e-014 1.77636e-015 22.8334 -0.54535 -2.70008 -9.1036 -0.0439 -1.8651 20.4472 -0.275863 -14.9251 -3.154 1.42109e-014 3.55271e-015 39.8222 -1.61577 -4.45883 -2.9377 0 0 10.8217 -1.24777 -1.3094 -9.5325 0 -3.55271e-015 37.5652 -1.35314 -13.5718 -3.6982 -1.42109e-014 -3.55271e-015 28.571 -0.847696 -3.3283 -2.9509 0 -1.77636e-015 6.91306 -0.977294 -0.840987 -9.1083 -0.5168 2.2601 25.9336 -0.699774 -2.01339 -3.6764 0 3.55271e-015 38.6039 -1.52201 -4.34389 -2.8831 0 -3.55271e-015 38.7244 -1.53117 -4.35535 -2.4648 -1.5727 2.6826 -30.4172 -3.67835 -16.1441 -3.2298 -1.8647 1.8647 16.1053 19.0296 -36.5692 -2.6526 -1.5314 1.5314 -2.46418 -3.15804 5.69487 8.2078 -6.7517 -1.5996 2.28224 -54.4983 -2.84951 2.66454e-015 -44.3705 0.2846 178.995 70.1658 -170.892 0 -44.4279 -2.9822 9.13543 23.8433 2.02329 0 -8.7287 10.7106 3.90326e-006 2.16846 -3.03036e-007 -8.2078 -6.7517 -1.5996 14.6322 -6.19726 -6.18914 8.88178e-016 -44.3705 0.2862 -0.442599 31.8273 8.86265 2.66454e-015 -44.4277 -2.9838 -13.0417 -20.9195 -2.20004 0 -8.7287 10.7106 7.20899e-007 -4.87977 -1.32463e-006 
-0.211874 98.1964 8.20007 -4.23527 -3.07761 -6.52769 8.88178e-016 10.1816 0.1315 5.12261 1.7274 6.92673 0 10.0835 -1.0008 -0.952389 3.26898 1.00726 -1.11022e-016 9.1 -1.3734 -0.913018 3.28381 0.994565 0 16.6717 -2.5162 -2.77898 -6.74878 -2.24051 0 9.6179 1.685 3.84008 -5.35107 5.34739 0 17.8152 2.585 1.98785e-016 0 -2.38542e-015 3.0676 6.4095 9.2836 1.98785e-016 0 -2.38542e-015 -3.0676 6.4095 9.2835 1.98785e-016 0 -2.38542e-015 4.5704 10.946 -2.628 -7.87452 3.54713 -9.29043 10.5924 -0.5246 -2.2321 -57.5399 -49.0847 24.6455 27.8415 -0.0001 -1.77636e-015 -0.000208325 -1.01158e-005 -41.9839 28.3288 0 0 48.9969 -5.31376 -24.5838 2.4661 -1.575 2.6824 2.74758 0.0413517 15.5878 3.2298 -1.8647 1.8647 -6.38185 8.08367 22.5441 2.6526 -1.5315 1.5315 -2.62675 4.06033 6.16966 9.1093 -0.5171 2.2601 15.9846 -0.265496 -2.836 3.6764 1.42109e-014 0 -31.4111 -1.01044 3.59233 2.8831 -1.42109e-014 -7.10543e-015 -19.5302 -0.396461 2.30338 9.5334 0 7.10543e-015 -1.97849 0.0620827 8.11064 3.6982 -1.42109e-014 0 -11.9089 -0.148273 1.42158 2.9509 -1.42109e-014 0 -23.1459 -0.554758 2.7086 9.1045 -0.0439 -1.8651 -1.53201 0.037012 6.36496 3.154 1.42109e-014 0 -24.1059 -0.601086 2.81446 2.9377 0 7.10543e-015 -6.61943 -0.0459217 0.794062 8.0778 -0.4887 -3.8061 -15.1842 -0.171462 9.85295 3.6 1.42109e-014 0 -8.72634 0.527136 -3.02369 2.1142 0 -7.10543e-015 -29.0176 -0.865393 3.34323 -4.57 10.9462 -2.628 8.64795 5.01067 16.9308 -10.5928 -0.5248 -2.2321 69.4024 -18.7779 4.22783 -27.8415 -1.42109e-014 0 8.91091e-006 1.8529e-006 26.8636 -28.3288 0 0.0001 -49.5143 16.9814 37.0822 -8.0767 -0.4885 -3.806 15.8539 0.0146226 -18.3033 -3.6 1.42109e-014 0.0001 18.6311 -0.364127 -2.22112 -2.1142 -1.42109e-014 3.55271e-015 21.3044 -0.475543 -2.52791 -9.1036 -0.0439 -1.8651 11.8804 -0.0402515 -11.6492 -3.154 1.42109e-014 7.10543e-015 35.5094 -1.29513 -4.04333 -2.9377 1.42109e-014 0 9.04574 -1.07335 -1.09608 -9.5325 0 -7.10543e-015 23.7229 -0.534638 -9.95336 -3.6982 0 0 23.4006 -0.572401 -2.76349 -2.9509 0 0 4.819 -0.40188 -0.586818 -9.1083 -0.5168 2.2601 17.8404 -0.33323 -0.994802 -3.6764 -1.42109e-014 -3.55271e-015 31.3686 -1.01762 -3.62301 -2.8831 1.42109e-014 0 35.2222 -1.2749 -4.01483 -2.4648 -1.5727 2.6826 -27.4577 -3.85281 -16.1452 -3.2298 -1.8647 1.8647 16.1524 19.0827 -36.8834 -2.6526 -1.5314 1.5314 -2.44999 -3.2564 5.93477 8.2078 -6.7517 -1.5996 -1.41844 -57.2153 -4.47827 0 -44.3705 0.2846 179.564 76.548 -170.883 0 -44.4279 -2.9822 8.38138 25.1981 0.650018 1.77636e-015 -8.7287 10.7106 2.64939e-006 0.518193 2.88628e-006 -8.2078 -6.7517 -1.5996 12.0362 -2.40022 -6.7588 0 -44.3705 0.2862 -2.11579 27.9314 9.78006 -1.77636e-015 -44.4277 -2.9838 -11.1819 -21.2551 -0.0171113 1.77636e-015 -8.7287 10.7106 5.77718e-007 -6.25557 -1.34104e-006 
0.100017 99.2419 10.994 -1.75171 -2.98531 -8.18718 2.22045e-016 10.1816 0.1315 4.1715 3.68433 8.82176 0 10.0835 -1.0008 -1.74446 2.98897 1.26777 -4.44089e-016 9.1 -1.3734 -1.70338 3.02094 1.25021 0 16.6717 -2.5162 -4.0019 -7.51434 -2.40386 -1.77636e-015 9.6179 1.685 4.56052 -7.63811 3.81953 0 17.8152 2.585 0 0 -7.95139e-016 3.0676 6.4095 9.2836 0 0 -7.95139e-016 -3.0676 6.4095 9.2835 0 0 -7.95139e-016 4.5704 10.946 -2.628 -8.03953 3.70938 -9.49541 10.5924 -0.5246 -2.2321 -52.0107 -49.6422 28.8001 27.8415 -0.0001 0 -0.000204638 -7.46906e-006 -41.6428 28.3288 0 0 49.1895 -8.32883 -22.7285 2.4661 -1.575 2.6824 2.33889 0.140374 15.748 3.2298 -1.8647 1.8647 -6.38647 8.08804 22.5663 2.6526 -1.5315 1.5315 -2.57229 3.9781 5.9201 9.1093 -0.5171 2.2601 18.4756 -0.354702 -2.84435 3.6764 0 7.10543e-015 -31.4862 -1.01516 3.60005 2.8831 -1.42109e-014 0 -19.5376 -0.396767 2.30422 9.5334 -1.42109e-014 -7.10543e-015 -0.286 0.0642773 7.79525 3.6982 0 7.10543e-015 -11.8982 -0.148016 1.42032 2.9509 0 1.42109e-014 -23.0848 -0.551875 2.70184 9.1045 -0.0439 -1.8651 -0.536981 0.0383616 6.18179 3.154 0 -7.10543e-015 -24.0141 -0.59657 2.80437 2.9377 0 -2.13163e-014 -6.63037 -0.046076 0.795368 8.0778 -0.4887 -3.8061 -14.327 -0.148285 9.56869 3.6 0 7.10543e-015 -8.68163 0.524781 -3.02948 2.1142 0 0 -28.9431 -0.86105 3.33538 -4.57 10.9462 -2.628 8.17654 4.80993 17.4957 -10.5928 -0.5248 -2.2321 70.9165 -16.7915 6.49062 -27.8415 7.10543e-015 0 -1.15393e-006 -8.93906e-007 31.9062 -28.3288 0 0.0001 -50.844 20.9613 40.2863 -8.0767 -0.4885 -3.806 12.2066 0.0986693 -17.1715 -3.6 -1.42109e-014 0.0001 12.6763 -0.169221 -1.52495 -2.1142 0 7.10543e-015 20.1192 -0.424611 -2.39318 -9.1036 -0.0439 -1.8651 5.47289 0.0367657 -8.76766 -3.154 1.42109e-014 7.10543e-015 32.7996 -1.11007 -3.77049 -2.9377 0 3.55271e-015 8.10003 -0.937284 -0.982004 -9.5325 0 -7.10543e-015 12.5783 -0.136102 -6.95252 -3.6982 0 -7.10543e-015 20.5267 -0.44181 -2.43961 -2.9509 0 0 3.60094 0.0718178 -0.438809 -9.1083 -0.5168 2.2601 11.3285 -0.133943 -0.131696 -3.6764 0 -3.55271e-015 26.2433 -0.717436 -3.07707 -2.8831 0 0 32.8054 -1.11045 -3.77109 -2.4648 -1.5727 2.6826 -25.0178 -3.89491 -16.2509 -3.2298 -1.8647 1.8647 16.2054 19.1388 -37.2229 -2.6526 -1.5314 1.5314 -2.43527 -3.35367 6.17223 8.2078 -6.7517 -1.5996 -4.66561 -57.9783 -5.40842 0 -44.3705 0.2846 -176.202 86.0199 -174.82 8.88178e-016 -44.4279 -2.9822 7.35971 26.3925 -0.427027 0 -8.7287 10.7106 -2.17838e-006 1.27636 -6.92644e-007 -8.2078 -6.7517 -1.5996 9.09457 1.46119 -7.34388 0 -44.3705 0.2862 -3.03816 22.9247 10.091 1.77636e-015 -44.4277 -2.9838 -9.22397 -20.8076 2.18143 0 -8.7287 10.7106 2.03938e-006 -7.30179 -1.12374e-006 
